<svg id="Layer_1" data-name="Layer 1" xmlns="http://www.w3.org/2000/svg" viewBox="0 0 498.71 498.71"><defs><style>.cls-1{fill:#fff;}.cls-2{fill:#231f20;}</style></defs><circle class="cls-1" cx="249.36" cy="249.36" r="249.36"/><path class="cls-2" d="M250.64,365.69a116.33,116.33,0,0,1-116.32-118C135.2,184.61,187,133.31,250.1,133A116.21,116.21,0,0,1,347.54,185a10.12,10.12,0,0,0,8.4,4.56H384.4a19,19,0,0,0,16.34-28.73C364.29,99.15,290.93,61.9,211.08,79.46A171.57,171.57,0,0,0,80.2,212.36C57.09,324.77,142.32,423.61,250.64,423.61a174.16,174.16,0,0,0,151.27-87.73,17,17,0,0,0-14.74-25.4h-32a10.22,10.22,0,0,0-8.44,4.5A116.2,116.2,0,0,1,250.64,365.69Z" transform="translate(-1.29)"/><circle class="cls-2" cx="249.36" cy="249.36" r="58.18"/><path class="cls-2" d="M439.22,269.3l-184,3.94a10.37,10.37,0,0,1-10.59-10.36V235.61A10.36,10.36,0,0,1,255,225.25H457.59a10.36,10.36,0,0,1,8.1,16.82L447.1,265.4A10.31,10.31,0,0,1,439.22,269.3Z" transform="translate(-1.29)"/></svg>